<svg width="41" height="41" viewBox="0 0 41 41" fill="none" xmlns="http://www.w3.org/2000/svg">
<path d="M34.3735 30.5738C33.6182 28.7848 32.5222 27.1597 31.1464 25.7892C29.7748 24.4147 28.15 23.3188 26.3617 22.562C26.3457 22.554 26.3297 22.55 26.3137 22.542C28.8081 20.7402 30.4297 17.8054 30.4297 14.4941C30.4297 9.00879 25.9853 4.56445 20.5 4.56445C15.0146 4.56445 10.5703 9.00879 10.5703 14.4941C10.5703 17.8054 12.1919 20.7402 14.6863 22.546C14.6703 22.554 14.6543 22.558 14.6383 22.566C12.8445 23.3228 11.2349 24.4078 9.85359 25.7932C8.47909 27.1648 7.3832 28.7896 6.62644 30.5778C5.88301 32.3286 5.48205 34.2056 5.44529 36.1072C5.44422 36.15 5.45172 36.1925 5.46734 36.2323C5.48295 36.2721 5.50638 36.3083 5.53623 36.3389C5.56608 36.3695 5.60175 36.3938 5.64115 36.4104C5.68054 36.427 5.72286 36.4356 5.7656 36.4355H8.16795C8.34412 36.4355 8.48426 36.2954 8.48826 36.1232C8.56834 33.0322 9.80955 30.1374 12.0037 27.9433C14.2739 25.673 17.2888 24.4238 20.5 24.4238C23.7111 24.4238 26.7261 25.673 28.9963 27.9433C31.1904 30.1374 32.4316 33.0322 32.5117 36.1232C32.5157 36.2994 32.6558 36.4355 32.832 36.4355H35.2344C35.2771 36.4356 35.3194 36.427 35.3588 36.4104C35.3982 36.3938 35.4339 36.3695 35.4637 36.3389C35.4936 36.3083 35.517 36.2721 35.5326 36.2323C35.5482 36.1925 35.5557 36.15 35.5547 36.1072C35.5146 34.1934 35.1182 32.3315 34.3735 30.5738ZM20.5 21.3809C18.6622 21.3809 16.9325 20.6642 15.6312 19.3629C14.33 18.0616 13.6133 16.3319 13.6133 14.4941C13.6133 12.6563 14.33 10.9267 15.6312 9.62539C16.9325 8.32412 18.6622 7.60742 20.5 7.60742C22.3378 7.60742 24.0675 8.32412 25.3687 9.62539C26.67 10.9267 27.3867 12.6563 27.3867 14.4941C27.3867 16.3319 26.67 18.0616 25.3687 19.3629C24.0675 20.6642 22.3378 21.3809 20.5 21.3809Z" fill="#C2A253"/>
</svg>
