<svg width="28" height="28" viewBox="0 0 28 28" fill="none" xmlns="http://www.w3.org/2000/svg">
<path d="M23.4746 20.8797C22.9588 19.6579 22.2103 18.5481 21.2707 17.6121C20.334 16.6734 19.2244 15.925 18.0031 15.4082C17.9922 15.4027 17.9813 15.4 17.9703 15.3945C19.6738 14.1641 20.7813 12.1598 20.7813 9.89844C20.7813 6.15234 17.7461 3.11719 14 3.11719C10.2539 3.11719 7.21876 6.15234 7.21876 9.89844C7.21876 12.1598 8.32618 14.1641 10.0297 15.3973C10.0188 15.4027 10.0078 15.4055 9.99688 15.4109C8.77188 15.9277 7.67266 16.6688 6.7293 17.6148C5.79062 18.5516 5.04221 19.6612 4.5254 20.8824C4.01769 22.078 3.74386 23.3599 3.71876 24.6586C3.71803 24.6878 3.72315 24.7168 3.73381 24.744C3.74448 24.7712 3.76048 24.7959 3.78086 24.8168C3.80125 24.8377 3.82561 24.8543 3.85251 24.8657C3.87942 24.877 3.90831 24.8828 3.93751 24.8828H5.57813C5.69844 24.8828 5.79415 24.7871 5.79688 24.6695C5.85157 22.5586 6.69923 20.5816 8.19766 19.0832C9.74805 17.5328 11.807 16.6797 14 16.6797C16.193 16.6797 18.252 17.5328 19.8023 19.0832C21.3008 20.5816 22.1484 22.5586 22.2031 24.6695C22.2059 24.7898 22.3016 24.8828 22.4219 24.8828H24.0625C24.0917 24.8828 24.1206 24.877 24.1475 24.8657C24.1744 24.8543 24.1988 24.8377 24.2192 24.8168C24.2395 24.7959 24.2555 24.7712 24.2662 24.744C24.2769 24.7168 24.282 24.6878 24.2813 24.6586C24.2539 23.3516 23.9832 22.0801 23.4746 20.8797ZM14 14.6016C12.7449 14.6016 11.5637 14.1121 10.675 13.2234C9.78633 12.3348 9.29688 11.1535 9.29688 9.89844C9.29688 8.64336 9.78633 7.46211 10.675 6.57344C11.5637 5.68477 12.7449 5.19531 14 5.19531C15.2551 5.19531 16.4363 5.68477 17.325 6.57344C18.2137 7.46211 18.7031 8.64336 18.7031 9.89844C18.7031 11.1535 18.2137 12.3348 17.325 13.2234C16.4363 14.1121 15.2551 14.6016 14 14.6016Z" fill="#C2A253"/>
</svg>
