<svg width="29" height="28" viewBox="0 0 29 28" fill="none" xmlns="http://www.w3.org/2000/svg">
<path d="M23.9746 20.8797C23.4588 19.6579 22.7103 18.5481 21.7707 17.6121C20.834 16.6734 19.7244 15.925 18.5031 15.4082C18.4922 15.4027 18.4813 15.4 18.4703 15.3945C20.1738 14.1641 21.2813 12.1598 21.2813 9.89844C21.2813 6.15234 18.2461 3.11719 14.5 3.11719C10.7539 3.11719 7.71876 6.15234 7.71876 9.89844C7.71876 12.1598 8.82618 14.1641 10.5297 15.3973C10.5188 15.4027 10.5078 15.4055 10.4969 15.4109C9.27188 15.9277 8.17266 16.6688 7.2293 17.6148C6.29062 18.5516 5.54221 19.6612 5.0254 20.8824C4.51769 22.078 4.24386 23.3599 4.21876 24.6586C4.21803 24.6878 4.22315 24.7168 4.23381 24.744C4.24448 24.7712 4.26048 24.7959 4.28086 24.8168C4.30125 24.8377 4.32561 24.8543 4.35251 24.8657C4.37942 24.877 4.40831 24.8828 4.43751 24.8828H6.07813C6.19844 24.8828 6.29415 24.7871 6.29688 24.6695C6.35157 22.5586 7.19923 20.5816 8.69766 19.0832C10.2481 17.5328 12.307 16.6797 14.5 16.6797C16.693 16.6797 18.752 17.5328 20.3023 19.0832C21.8008 20.5816 22.6484 22.5586 22.7031 24.6695C22.7059 24.7898 22.8016 24.8828 22.9219 24.8828H24.5625C24.5917 24.8828 24.6206 24.877 24.6475 24.8657C24.6744 24.8543 24.6988 24.8377 24.7192 24.8168C24.7395 24.7959 24.7555 24.7712 24.7662 24.744C24.7769 24.7168 24.782 24.6878 24.7813 24.6586C24.7539 23.3516 24.4832 22.0801 23.9746 20.8797ZM14.5 14.6016C13.2449 14.6016 12.0637 14.1121 11.175 13.2234C10.2863 12.3348 9.79688 11.1535 9.79688 9.89844C9.79688 8.64336 10.2863 7.46211 11.175 6.57344C12.0637 5.68477 13.2449 5.19531 14.5 5.19531C15.7551 5.19531 16.9363 5.68477 17.825 6.57344C18.7137 7.46211 19.2031 8.64336 19.2031 9.89844C19.2031 11.1535 18.7137 12.3348 17.825 13.2234C16.9363 14.1121 15.7551 14.6016 14.5 14.6016Z" fill="#6C5B30"/>
</svg>
