<svg width="42" height="41" viewBox="0 0 42 41" fill="none" xmlns="http://www.w3.org/2000/svg">
<path d="M21 2.5625C11.0943 2.5625 3.0625 10.5943 3.0625 20.5C3.0625 30.4057 11.0943 38.4375 21 38.4375C30.9057 38.4375 38.9375 30.4057 38.9375 20.5C38.9375 10.5943 30.9057 2.5625 21 2.5625ZM21 35.3945C12.776 35.3945 6.10547 28.724 6.10547 20.5C6.10547 12.276 12.776 5.60547 21 5.60547C29.224 5.60547 35.8945 12.276 35.8945 20.5C35.8945 28.724 29.224 35.3945 21 35.3945ZM28.9438 11.8476C28.7869 11.7863 28.6196 11.7565 28.4513 11.7599C28.283 11.7634 28.117 11.8 27.9628 11.8676L17.1122 16.6162L12.3676 27.4668C12.2234 27.7951 12.2234 28.1675 12.3676 28.4958C12.5037 28.8081 12.756 29.0523 13.0763 29.1765C13.2284 29.2365 13.3846 29.2646 13.5447 29.2646C13.7209 29.2646 13.8931 29.2285 14.0572 29.1564L24.9078 24.4078L29.6524 13.5572C29.7217 13.3989 29.7582 13.2282 29.7599 13.0554C29.7615 12.8825 29.7283 12.7112 29.6621 12.5515C29.5959 12.3919 29.4982 12.2472 29.3747 12.1263C29.2513 12.0053 29.1047 11.9105 28.9438 11.8476ZM23.5945 21.3969L24.6436 22.4459L22.9459 24.1436L21.8969 23.0945L15.7148 25.8012L18.4175 19.6191L17.3965 18.5941L19.0941 16.8965L20.1151 17.9175L26.3012 15.2148L23.5945 21.3969ZM19.0941 16.8965L17.3965 18.5941L18.4175 19.6191L21.8969 23.0945L22.9459 24.1436L24.6436 22.4459L23.5945 21.3969L20.1191 17.9175L19.0941 16.8965Z" fill="#C2A253"/>
</svg>
