<svg width="29" height="28" viewBox="0 0 29 28" fill="none" xmlns="http://www.w3.org/2000/svg">
<path d="M20.875 3.71875C20.8113 3.71856 20.7479 3.72778 20.6869 3.7461L3.18688 8.9961C3.05156 9.03659 2.93291 9.11966 2.84858 9.23296C2.76424 9.34627 2.71871 9.48376 2.71875 9.625V12.25C2.71875 12.4241 2.78789 12.591 2.91096 12.714C3.03403 12.8371 3.20095 12.9063 3.375 12.9063H4.25C4.76482 12.9087 5.25842 13.1116 5.62602 13.4721C5.99361 13.8325 6.20623 14.322 6.21875 14.8367C6.22259 15.0942 6.17471 15.3498 6.07795 15.5884C5.98119 15.827 5.83753 16.0437 5.65547 16.2258C5.46417 16.4203 5.23629 16.575 4.98494 16.6811C4.73359 16.7871 4.46374 16.8424 4.19094 16.8438H3.375C3.20095 16.8438 3.03403 16.9129 2.91096 17.036C2.78789 17.159 2.71875 17.326 2.71875 17.5V21C2.71875 21.1741 2.78789 21.341 2.91096 21.464C3.03403 21.5871 3.20095 21.6563 3.375 21.6563H25.25C25.6561 21.6563 26.0456 21.4949 26.3328 21.2078C26.6199 20.9206 26.7812 20.5311 26.7812 20.125V9.625C26.7795 8.0591 26.1567 6.55783 25.0494 5.45057C23.9422 4.34331 22.4409 3.72049 20.875 3.71875ZM20.968 5.03125C22.0561 5.05483 23.1006 5.46335 23.916 6.18424C24.7315 6.90513 25.2649 7.89172 25.4217 8.96875H7.84625L20.968 5.03125ZM21.9688 11.375C21.9688 11.7957 21.8754 12.2112 21.6954 12.5915C21.5154 12.9718 21.2533 13.3075 20.9279 13.5742C20.6025 13.8409 20.222 14.0322 19.8138 14.1341C19.4056 14.236 18.9799 14.246 18.5673 14.1635C18.1547 14.081 17.7656 13.908 17.428 13.6569C17.0904 13.4058 16.8127 13.083 16.6149 12.7116C16.4172 12.3402 16.3043 11.9296 16.2844 11.5093C16.2645 11.0891 16.3382 10.6696 16.5 10.2813H21.75C21.8948 10.6277 21.9691 10.9995 21.9688 11.375ZM15.8438 20.3438H10.1562V20.125C10.1562 19.3708 10.4559 18.6475 10.9892 18.1142C11.5225 17.5809 12.2458 17.2813 13 17.2813C13.7542 17.2813 14.4775 17.5809 15.0108 18.1142C15.5441 18.6475 15.8438 19.3708 15.8438 20.125V20.3438ZM25.4688 20.125C25.4688 20.183 25.4457 20.2387 25.4047 20.2797C25.3637 20.3207 25.308 20.3438 25.25 20.3438H17.1562V20.125C17.1562 19.0227 16.7184 17.9655 15.9389 17.1861C15.1595 16.4066 14.1023 15.9688 13 15.9688C11.8977 15.9688 10.8405 16.4066 10.0611 17.1861C9.28164 17.9655 8.84375 19.0227 8.84375 20.125V20.3438H4.03125V18.1563H4.19094C4.63897 18.155 5.08231 18.0649 5.49532 17.8912C5.90834 17.7176 6.28284 17.4638 6.59719 17.1445C6.90127 16.8381 7.14066 16.4737 7.30112 16.0729C7.46158 15.6721 7.53984 15.2432 7.53125 14.8116C7.51076 13.9536 7.15651 13.1375 6.54379 12.5366C5.93106 11.9357 5.10818 11.5975 4.25 11.5938H4.03125V10.2813H15.1153C14.9471 10.8978 14.9233 11.5449 15.0459 12.1722C15.1684 12.7994 15.434 13.39 15.8219 13.8979C16.2098 14.4058 16.7096 14.8175 17.2825 15.1008C17.8554 15.3841 18.4859 15.5315 19.125 15.5315C19.7641 15.5315 20.3946 15.3841 20.9675 15.1008C21.5404 14.8175 22.0402 14.4058 22.4281 13.8979C22.816 13.39 23.0816 12.7994 23.2041 12.1722C23.3267 11.5449 23.3029 10.8978 23.1347 10.2813H25.4688V20.125Z" fill="#6C5B30" stroke="#6C5B30"/>
</svg>
