<svg width="28" height="28" viewBox="0 0 28 28" fill="none" xmlns="http://www.w3.org/2000/svg">
<path d="M4.7 25.7C4.65432 25.8956 4.6535 26.099 4.6976 26.2949C4.7417 26.4908 4.82958 26.6742 4.95464 26.8314C5.07971 26.9885 5.23872 27.1153 5.41976 27.2022C5.6008 27.2892 5.79917 27.334 6 27.3334C6.26338 27.3334 6.52087 27.2555 6.74 27.1094L14 22.2694L21.26 27.1094C21.4871 27.2601 21.755 27.3378 22.0275 27.3318C22.3001 27.3258 22.5642 27.2365 22.7845 27.0759C23.0048 26.9153 23.1706 26.6911 23.2597 26.4334C23.3487 26.1758 23.3568 25.897 23.2827 25.6347L20.844 17.1014L26.892 11.6587C27.0857 11.4843 27.224 11.2569 27.2899 11.0047C27.3557 10.7525 27.3462 10.4865 27.2625 10.2397C27.1788 9.99282 27.0246 9.77592 26.8189 9.61579C26.6133 9.45565 26.3652 9.35931 26.1053 9.33869L18.504 8.73335L15.2147 1.45202C15.1099 1.2175 14.9395 1.01831 14.7241 0.878496C14.5086 0.738677 14.2573 0.664204 14.0004 0.664063C13.7436 0.663922 13.4922 0.73812 13.2766 0.877702C13.061 1.01728 12.8903 1.21628 12.7853 1.45069L9.496 8.73335L1.89467 9.33735C1.63928 9.35759 1.39512 9.45097 1.19141 9.60633C0.987698 9.76169 0.833059 9.97245 0.745993 10.2134C0.658926 10.4543 0.643119 10.7153 0.700462 10.965C0.757805 11.2147 0.88587 11.4425 1.06934 11.6214L6.688 17.0974L4.7 25.7ZM14 5.23869L16.7227 11.2667L17.5067 11.3294L22.804 11.7494L18.4427 15.6747L18.4413 15.6774L17.824 16.232L18.052 17.028V17.032L19.7227 22.8787L14 19.064V5.23869Z" fill="#C2A253" fill-opacity="0.862745"/>
</svg>
