<svg width="28" height="26" viewBox="0 0 28 26" fill="none" xmlns="http://www.w3.org/2000/svg">
<path d="M26.2469 9.62023L18.3126 8.4671L14.7657 1.27648C14.6688 1.0796 14.5094 0.920226 14.3126 0.823351C13.8188 0.579601 13.2188 0.782726 12.9719 1.27648L9.42505 8.4671L1.49068 9.62023C1.27193 9.65148 1.07193 9.7546 0.918802 9.91085C0.733683 10.1011 0.631673 10.3571 0.635189 10.6225C0.638705 10.888 0.747458 11.1412 0.937552 11.3265L6.67818 16.9234L5.32193 24.8265C5.29012 25.0103 5.31047 25.1994 5.38065 25.3723C5.45084 25.5451 5.56806 25.6949 5.71902 25.8045C5.86998 25.9142 6.04864 25.9793 6.23474 25.9926C6.42084 26.0059 6.60694 25.9667 6.77193 25.8796L13.8688 22.1484L20.9657 25.8796C21.1594 25.9827 21.3844 26.0171 21.6001 25.9796C22.1438 25.8859 22.5094 25.3702 22.4157 24.8265L21.0594 16.9234L26.8001 11.3265C26.9563 11.1734 27.0594 10.9734 27.0907 10.7546C27.1751 10.2077 26.7938 9.70148 26.2469 9.62023ZM18.6438 16.1359L19.7719 22.7077L13.8688 19.6077L7.96568 22.7109L9.0938 16.139L4.3188 11.4827L10.9188 10.5234L13.8688 4.54523L16.8188 10.5234L23.4188 11.4827L18.6438 16.1359Z" fill="#C2A253"/>
</svg>
