<svg width="14" height="14" viewBox="0 0 14 14" fill="none" xmlns="http://www.w3.org/2000/svg">
<path d="M13.8715 5.72586H7.14248V8.43466H10.9866C10.8208 9.31023 10.3179 10.0508 9.55993 10.547C8.91925 10.9665 8.10164 11.2146 7.14061 11.2146C5.28003 11.2146 3.70627 9.98332 3.14381 8.32886C3.00226 7.90931 2.92031 7.46059 2.92031 6.99909C2.92031 6.53759 3.00226 6.08886 3.14381 5.66932C3.70813 4.01668 5.28189 2.78541 7.14248 2.78541C8.19103 2.78541 9.13157 3.13928 9.87282 3.83244L11.9215 1.8241C10.683 0.69316 9.06824 0 7.14248 0C4.35067 0 1.93508 1.56873 0.759878 3.85616C0.275642 4.80104 0 5.86997 0 7.00091C0 8.13186 0.275642 9.19896 0.759878 10.1438C1.93508 12.4313 4.35067 14 7.14248 14C9.07197 14 10.6886 13.3725 11.8694 12.3036C13.2196 11.0851 14 9.29016 14 7.15779C14 6.66163 13.9553 6.18554 13.8715 5.72586Z" fill="black"/>
</svg>
