<svg width="29" height="28" viewBox="0 0 29 28" fill="none" xmlns="http://www.w3.org/2000/svg">
<path d="M22.9435 19.8065C22.3971 19.2831 21.8653 18.7447 21.3486 18.1918C20.9146 17.7508 20.6533 17.43 20.6533 17.43L17.3866 15.8702C18.6945 14.3869 19.4163 12.4775 19.4166 10.5C19.4166 5.99784 15.7533 2.33334 11.25 2.33334C6.74665 2.33334 3.08331 5.99784 3.08331 10.5C3.08331 15.0022 6.74665 18.6667 11.25 18.6667C13.3068 18.6667 15.1816 17.8967 16.6201 16.6378L18.18 19.9045C18.18 19.9045 18.5008 20.1658 18.9418 20.5998C19.3933 21.0233 19.9871 21.5962 20.5565 22.1947L22.1408 23.8187L22.8455 24.5723L25.32 22.0978L24.5663 21.3932C24.1241 20.9592 23.5338 20.3828 22.9435 19.8065ZM11.25 16.3333C8.03348 16.3333 5.41665 13.7165 5.41665 10.5C5.41665 7.28351 8.03348 4.66668 11.25 4.66668C14.4665 4.66668 17.0833 7.28351 17.0833 10.5C17.0833 13.7165 14.4665 16.3333 11.25 16.3333Z" fill="#6C5B30"/>
</svg>
