<svg width="28" height="28" viewBox="0 0 28 28" fill="none" xmlns="http://www.w3.org/2000/svg">
<path d="M14.644 9.33325C13.9996 9.33325 13.4773 9.85559 13.4773 10.4999C13.4773 11.1442 13.9996 11.6666 14.644 11.6666H19.3107C19.955 11.6666 20.4773 11.1442 20.4773 10.4999C20.4773 9.85559 19.955 9.33325 19.3107 9.33325H14.644Z" fill="#6C5B30"/>
<path d="M14.644 19.8333C13.9996 19.8333 13.4773 20.3556 13.4773 20.9999C13.4773 21.6443 13.9996 22.1666 14.644 22.1666H19.3107C19.955 22.1666 20.4773 21.6443 20.4773 20.9999C20.4773 20.3556 19.955 19.8333 19.3107 19.8333H14.644Z" fill="#6C5B30"/>
<path d="M14.644 5.83325C13.9996 5.83325 13.4773 6.35559 13.4773 6.99992C13.4773 7.64425 13.9996 8.16659 14.644 8.16659H23.9773C24.6217 8.16659 25.144 7.64425 25.144 6.99992C25.144 6.35559 24.6217 5.83325 23.9773 5.83325H14.644Z" fill="#6C5B30"/>
<path d="M14.644 16.3333C13.9996 16.3333 13.4773 16.8556 13.4773 17.4999C13.4773 18.1443 13.9996 18.6666 14.644 18.6666H23.9773C24.6217 18.6666 25.144 18.1443 25.144 17.4999C25.144 16.8556 24.6217 16.3333 23.9773 16.3333H14.644Z" fill="#6C5B30"/>
<path d="M4.02267 4.66919C3.37833 4.66919 2.856 5.19152 2.856 5.83586V11.6692C2.856 12.3136 3.37833 12.8359 4.02267 12.8359H9.856C10.5003 12.8359 11.0227 12.3136 11.0227 11.6692V5.83586C11.0227 5.19152 10.5003 4.66919 9.856 4.66919H4.02267Z" fill="#6C5B30"/>
<path d="M4.02267 15.1643C3.37833 15.1643 2.856 15.6866 2.856 16.331V22.1643C2.856 22.8087 3.37833 23.331 4.02267 23.331H9.856C10.5003 23.331 11.0227 22.8087 11.0227 22.1643V16.331C11.0227 15.6866 10.5003 15.1643 9.856 15.1643H4.02267Z" fill="#6C5B30"/>
</svg>
