<svg width="29" height="28" viewBox="0 0 29 28" fill="none" xmlns="http://www.w3.org/2000/svg">
<path d="M20.625 3.71875C20.5613 3.71856 20.4979 3.72778 20.4369 3.7461L2.93688 8.9961C2.80156 9.03659 2.68291 9.11966 2.59858 9.23296C2.51424 9.34627 2.46871 9.48376 2.46875 9.625V12.25C2.46875 12.4241 2.53789 12.591 2.66096 12.714C2.78403 12.8371 2.95095 12.9063 3.125 12.9063H4C4.51482 12.9087 5.00842 13.1116 5.37602 13.4721C5.74361 13.8325 5.95623 14.322 5.96875 14.8367C5.97259 15.0942 5.92471 15.3498 5.82795 15.5884C5.73119 15.827 5.58753 16.0437 5.40547 16.2258C5.21417 16.4203 4.98629 16.575 4.73494 16.6811C4.48359 16.7871 4.21374 16.8424 3.94094 16.8438H3.125C2.95095 16.8438 2.78403 16.9129 2.66096 17.036C2.53789 17.159 2.46875 17.326 2.46875 17.5V21C2.46875 21.1741 2.53789 21.341 2.66096 21.464C2.78403 21.5871 2.95095 21.6563 3.125 21.6563H25C25.4061 21.6563 25.7956 21.4949 26.0828 21.2078C26.3699 20.9206 26.5312 20.5311 26.5312 20.125V9.625C26.5295 8.0591 25.9067 6.55783 24.7994 5.45057C23.6922 4.34331 22.1909 3.72049 20.625 3.71875ZM20.718 5.03125C21.8061 5.05483 22.8506 5.46335 23.6661 6.18424C24.4815 6.90513 25.0149 7.89172 25.1717 8.96875H7.59625L20.718 5.03125ZM21.7188 11.375C21.7187 11.7957 21.6254 12.2112 21.4454 12.5915C21.2654 12.9718 21.0033 13.3075 20.6779 13.5742C20.3525 13.8409 19.972 14.0322 19.5638 14.1341C19.1556 14.236 18.7299 14.246 18.3173 14.1635C17.9047 14.081 17.5156 13.908 17.178 13.6569C16.8404 13.4058 16.5627 13.083 16.3649 12.7116C16.1672 12.3402 16.0543 11.9296 16.0344 11.5093C16.0145 11.0891 16.0882 10.6696 16.25 10.2813H21.5C21.6448 10.6277 21.7191 10.9995 21.7188 11.375ZM15.5938 20.3438H9.90625V20.125C9.90625 19.3708 10.2059 18.6475 10.7392 18.1142C11.2725 17.5809 11.9958 17.2813 12.75 17.2813C13.5042 17.2813 14.2275 17.5809 14.7608 18.1142C15.2941 18.6475 15.5937 19.3708 15.5938 20.125V20.3438ZM25.2188 20.125C25.2188 20.183 25.1957 20.2387 25.1547 20.2797C25.1137 20.3207 25.058 20.3438 25 20.3438H16.9062V20.125C16.9062 19.0227 16.4684 17.9655 15.6889 17.1861C14.9095 16.4066 13.8523 15.9688 12.75 15.9688C11.6477 15.9688 10.5905 16.4066 9.81109 17.1861C9.03164 17.9655 8.59375 19.0227 8.59375 20.125V20.3438H3.78125V18.1563H3.94094C4.38897 18.155 4.83231 18.0649 5.24532 17.8912C5.65834 17.7176 6.03284 17.4638 6.34719 17.1445C6.65127 16.8381 6.89066 16.4737 7.05112 16.0729C7.21158 15.6721 7.28984 15.2432 7.28125 14.8116C7.26076 13.9536 6.90651 13.1375 6.29379 12.5366C5.68106 11.9357 4.85818 11.5975 4 11.5938H3.78125V10.2813H14.8653C14.6971 10.8978 14.6733 11.5449 14.7959 12.1722C14.9184 12.7994 15.184 13.39 15.5719 13.8979C15.9598 14.4058 16.4596 14.8175 17.0325 15.1008C17.6054 15.3841 18.2359 15.5315 18.875 15.5315C19.5141 15.5315 20.1446 15.3841 20.7175 15.1008C21.2904 14.8175 21.7902 14.4058 22.1781 13.8979C22.566 13.39 22.8316 12.7994 22.9541 12.1722C23.0767 11.5449 23.0529 10.8978 22.8847 10.2813H25.2188V20.125Z" fill="#C2A253" stroke="#C2A253"/>
</svg>
