<svg width="42" height="41" viewBox="0 0 42 41" fill="none" xmlns="http://www.w3.org/2000/svg">
<path d="M29.7188 5.44532C29.6255 5.44504 29.5326 5.45853 29.4433 5.48536L3.81828 13.1729C3.62014 13.2321 3.44641 13.3538 3.32291 13.5197C3.19942 13.6856 3.13275 13.8869 3.13281 14.0938V17.9375C3.13281 18.1924 3.23405 18.4368 3.41426 18.617C3.59448 18.7972 3.83889 18.8984 4.09375 18.8984H5.375C6.12884 18.902 6.85162 19.1992 7.38988 19.727C7.92814 20.2548 8.23949 20.9716 8.25781 21.7252C8.26343 22.1022 8.19332 22.4764 8.05164 22.8258C7.90996 23.1752 7.6996 23.4926 7.43301 23.7592C7.1529 24.044 6.81921 24.2706 6.45116 24.4259C6.08312 24.5812 5.68798 24.6621 5.28852 24.6641H4.09375C3.83889 24.6641 3.59448 24.7653 3.41426 24.9455C3.23405 25.1257 3.13281 25.3701 3.13281 25.625V30.75C3.13281 31.0049 3.23405 31.2493 3.41426 31.4295C3.59448 31.6097 3.83889 31.7109 4.09375 31.7109H36.125C36.7197 31.7109 37.29 31.4747 37.7105 31.0542C38.131 30.6337 38.3672 30.0634 38.3672 29.4688V14.0938C38.3646 11.8008 37.4527 9.60254 35.8313 7.98119C34.21 6.35985 32.0117 5.44786 29.7188 5.44532ZM29.8549 7.36719C31.4482 7.40171 32.9777 7.9999 34.1717 9.05549C35.3657 10.1111 36.1469 11.5557 36.3764 13.1328H10.6409L29.8549 7.36719ZM31.3203 16.6563C31.3203 17.2723 31.1836 17.8807 30.9201 18.4376C30.6565 18.9945 30.2727 19.4859 29.7962 19.8765C29.3198 20.2671 28.7626 20.5471 28.1649 20.6963C27.5671 20.8455 26.9437 20.8603 26.3396 20.7395C25.7355 20.6186 25.1657 20.3653 24.6714 19.9976C24.177 19.63 23.7704 19.1572 23.4808 18.6134C23.1912 18.0696 23.0259 17.4684 22.9968 16.853C22.9677 16.2376 23.0755 15.6234 23.3125 15.0547H31C31.212 15.562 31.3209 16.1064 31.3203 16.6563ZM22.3516 29.7891H14.0234V29.4688C14.0234 28.3644 14.4622 27.3052 15.2431 26.5243C16.024 25.7434 17.0831 25.3047 18.1875 25.3047C19.2919 25.3047 20.351 25.7434 21.1319 26.5243C21.9129 27.3052 22.3516 28.3644 22.3516 29.4688V29.7891ZM36.4453 29.4688C36.4453 29.5537 36.4116 29.6352 36.3515 29.6953C36.2914 29.7553 36.21 29.7891 36.125 29.7891H24.2734V29.4688C24.2734 27.8547 23.6322 26.3067 22.4909 25.1653C21.3496 24.024 19.8016 23.3828 18.1875 23.3828C16.5734 23.3828 15.0254 24.024 13.8841 25.1653C12.7428 26.3067 12.1016 27.8547 12.1016 29.4688V29.7891H5.05469V26.5859H5.28852C5.94457 26.584 6.59374 26.4522 7.19851 26.1979C7.80328 25.9436 8.35166 25.572 8.81195 25.1045C9.25722 24.6558 9.60775 24.1222 9.84271 23.5353C10.0777 22.9485 10.1923 22.3204 10.1797 21.6884C10.1497 20.4321 9.63096 19.237 8.73376 18.3572C7.83656 17.4773 6.63161 16.982 5.375 16.9766H5.05469V15.0547H21.2849C21.0386 15.9575 21.0038 16.905 21.1832 17.8235C21.3627 18.742 21.7515 19.6067 22.3195 20.3505C22.8875 21.0942 23.6194 21.697 24.4583 22.1119C25.2972 22.5267 26.2204 22.7425 27.1562 22.7425C28.0921 22.7425 29.0153 22.5267 29.8542 22.1119C30.6931 21.697 31.425 21.0942 31.993 20.3505C32.561 19.6067 32.9498 18.742 33.1293 17.8235C33.3087 16.905 33.2739 15.9575 33.0276 15.0547H36.4453V29.4688Z" fill="#C2A253" stroke="#C2A253"/>
</svg>
