<svg width="28" height="26" viewBox="0 0 28 26" fill="none" xmlns="http://www.w3.org/2000/svg">
<path d="M26.3781 9.03429L18.4437 7.88116L14.8969 0.690539C14.8 0.493664 14.6406 0.334289 14.4437 0.237414C13.95 -0.00633609 13.35 0.196789 13.1031 0.690539L9.55625 7.88116L1.62187 9.03429C1.40312 9.06554 1.20312 9.16866 1.05 9.32491C0.864878 9.51518 0.762869 9.77117 0.766384 10.0366C0.7699 10.3021 0.878653 10.5552 1.06875 10.7405L6.80937 16.3374L5.45312 24.2405C5.42132 24.4244 5.44166 24.6135 5.51185 24.7863C5.58203 24.9592 5.69925 25.1089 5.85021 25.2186C6.00117 25.3282 6.17983 25.3934 6.36593 25.4066C6.55204 25.4199 6.73813 25.3808 6.90312 25.2937L14 21.5624L21.0969 25.2937C21.2906 25.3968 21.5156 25.4312 21.7312 25.3937C22.275 25.2999 22.6406 24.7843 22.5469 24.2405L21.1906 16.3374L26.9312 10.7405C27.0875 10.5874 27.1906 10.3874 27.2219 10.1687C27.3062 9.62179 26.925 9.11554 26.3781 9.03429Z" fill="#C2A253"/>
</svg>
