<svg width="28" height="28" viewBox="0 0 28 28" fill="none" xmlns="http://www.w3.org/2000/svg">
<path d="M6.68799 17.0974L4.70133 25.7001C4.63981 25.9606 4.65828 26.2336 4.75432 26.4834C4.85036 26.7332 5.01952 26.9483 5.23969 27.1005C5.45986 27.2527 5.72081 27.335 5.98846 27.3366C6.25612 27.3382 6.51803 27.259 6.73999 27.1094L14 22.2694L21.26 27.1094C21.4871 27.2602 21.755 27.3378 22.0275 27.3319C22.3001 27.3259 22.5642 27.2366 22.7845 27.076C23.0048 26.9154 23.1706 26.6912 23.2597 26.4335C23.3487 26.1759 23.3568 25.8971 23.2827 25.6348L20.844 17.1014L26.892 11.6588C27.0857 11.4843 27.224 11.257 27.2899 11.0048C27.3557 10.7526 27.3462 10.4866 27.2625 10.2397C27.1788 9.99289 27.0246 9.77598 26.8189 9.61585C26.6133 9.45572 26.3652 9.35938 26.1053 9.33875L18.504 8.73342L15.2147 1.45208C15.1098 1.21763 14.9393 1.01853 14.7237 0.878831C14.5082 0.739131 14.2568 0.664795 14 0.664795C13.7431 0.664795 13.4918 0.739131 13.2762 0.878831C13.0607 1.01853 12.8902 1.21763 12.7853 1.45208L9.49599 8.73342L1.89466 9.33742C1.63927 9.35765 1.39511 9.45103 1.1914 9.60639C0.98769 9.76175 0.833052 9.97251 0.745985 10.2135C0.658919 10.4544 0.643111 10.7153 0.700454 10.965C0.757797 11.2147 0.885862 11.4426 1.06933 11.6214L6.68799 17.0974ZM10.492 11.3294C10.73 11.3107 10.9586 11.2282 11.1537 11.0908C11.3489 10.9533 11.5035 10.7659 11.6013 10.5481L14 5.24008L16.3987 10.5481C16.4965 10.7659 16.6511 10.9533 16.8463 11.0908C17.0414 11.2282 17.27 11.3107 17.508 11.3294L22.804 11.7494L18.4427 15.6748C18.064 16.0161 17.9133 16.5414 18.052 17.0321L19.7227 22.8788L14.7413 19.5574C14.5227 19.4107 14.2653 19.3323 14.002 19.3323C13.7387 19.3323 13.4813 19.4107 13.2627 19.5574L8.05733 23.0281L9.45733 16.9668C9.50866 16.7438 9.50177 16.5114 9.43732 16.2919C9.37287 16.0724 9.25303 15.8732 9.08933 15.7134L5.03866 11.7641L10.492 11.3294Z" fill="#C2A253" fill-opacity="0.862745"/>
</svg>
