<svg width="29" height="28" viewBox="0 0 29 28" fill="none" xmlns="http://www.w3.org/2000/svg">
<path d="M26.3809 13.8086L15.8152 3.24845L15.107 2.54024C14.9457 2.37994 14.7275 2.28998 14.5 2.28998C14.2726 2.28998 14.0543 2.37994 13.893 2.54024L2.61916 13.8086C2.45381 13.9733 2.32314 14.1695 2.23485 14.3855C2.14655 14.6015 2.10244 14.8331 2.10509 15.0664C2.11603 16.0289 2.9172 16.7973 3.8797 16.7973H5.04181V25.7031H23.9582V16.7973H25.1449C25.6125 16.7973 26.0527 16.6141 26.3836 16.2832C26.5465 16.1208 26.6756 15.9277 26.7634 15.7151C26.8511 15.5025 26.8959 15.2746 26.8949 15.0445C26.8949 14.5797 26.7117 14.1395 26.3809 13.8086ZM16.0313 23.7344H12.9688V18.1563H16.0313V23.7344ZM21.9895 14.8285V23.7344H17.7813V17.5C17.7813 16.8957 17.2918 16.4063 16.6875 16.4063H12.3125C11.7082 16.4063 11.2188 16.8957 11.2188 17.5V23.7344H7.01056V14.8285H4.38556L14.5027 4.71954L15.1344 5.35118L24.6172 14.8285H21.9895Z" fill="#C2A253"/>
</svg>
