<svg width="41" height="41" viewBox="0 0 41 41" fill="none" xmlns="http://www.w3.org/2000/svg">
<path d="M37.8969 20.2197L22.4258 4.75665L21.3888 3.71964C21.1526 3.48492 20.833 3.35318 20.5 3.35318C20.1669 3.35318 19.8474 3.48492 19.6111 3.71964L3.103 20.2197C2.86089 20.4609 2.66954 20.7481 2.54026 21.0645C2.41097 21.3808 2.34637 21.7198 2.35026 22.0615C2.36628 23.4709 3.53942 24.596 4.9488 24.596H6.65046V37.6367H34.3495V24.596H36.0872C36.7718 24.596 37.4165 24.3277 37.9009 23.8433C38.1395 23.6055 38.3285 23.3227 38.457 23.0114C38.5855 22.7001 38.651 22.3663 38.6497 22.0295C38.6497 21.3488 38.3814 20.7042 37.8969 20.2197ZM22.7422 34.7539H18.2578V26.5859H22.7422V34.7539ZM31.4667 21.7132V34.7539H25.3047V25.625C25.3047 24.7401 24.588 24.0234 23.7031 24.0234H17.2968C16.412 24.0234 15.6953 24.7401 15.6953 25.625V34.7539H9.53327V21.7132H5.68952L20.504 6.91075L21.4289 7.83565L35.3144 21.7132H31.4667Z" fill="#C2A253"/>
</svg>
