<svg width="29" height="28" viewBox="0 0 29 28" fill="none" xmlns="http://www.w3.org/2000/svg">
<path d="M14.5 1.75C7.73516 1.75 2.25 7.23516 2.25 14C2.25 20.7648 7.73516 26.25 14.5 26.25C21.2648 26.25 26.75 20.7648 26.75 14C26.75 7.23516 21.2648 1.75 14.5 1.75ZM14.5 24.1719C8.88359 24.1719 4.32812 19.6164 4.32812 14C4.32812 8.38359 8.88359 3.82812 14.5 3.82812C20.1164 3.82812 24.6719 8.38359 24.6719 14C24.6719 19.6164 20.1164 24.1719 14.5 24.1719ZM19.925 8.09102C19.8179 8.04917 19.7036 8.02884 19.5887 8.03118C19.4737 8.03353 19.3604 8.05851 19.2551 8.10469L11.8449 11.3477L8.60469 18.7578C8.50625 18.982 8.50625 19.2363 8.60469 19.4605C8.69766 19.6738 8.86992 19.8406 9.08867 19.9254C9.19258 19.9664 9.29922 19.9855 9.40859 19.9855C9.52891 19.9855 9.64648 19.9609 9.75859 19.9117L17.1687 16.6687L20.409 9.25859C20.4563 9.15045 20.4812 9.03387 20.4823 8.91585C20.4835 8.79783 20.4608 8.6808 20.4156 8.57177C20.3704 8.46274 20.3036 8.36396 20.2193 8.28135C20.135 8.19874 20.0349 8.134 19.925 8.09102ZM16.2719 14.6125L16.9883 15.3289L15.8289 16.4883L15.1125 15.7719L10.8906 17.6203L12.7363 13.3984L12.0391 12.6984L13.1984 11.5391L13.8957 12.2363L18.1203 10.3906L16.2719 14.6125ZM13.1984 11.5391L12.0391 12.6984L12.7363 13.3984L15.1125 15.7719L15.8289 16.4883L16.9883 15.3289L16.2719 14.6125L13.8984 12.2363L13.1984 11.5391Z" fill="#6C5B30"/>
</svg>
