<svg width="29" height="28" viewBox="0 0 29 28" fill="none" xmlns="http://www.w3.org/2000/svg">
<path d="M22.6935 19.8065C22.1471 19.2831 21.6153 18.7447 21.0986 18.1918C20.6646 17.7508 20.4033 17.43 20.4033 17.43L17.1366 15.8702C18.4445 14.3869 19.1663 12.4775 19.1666 10.5C19.1666 5.99784 15.5033 2.33334 11 2.33334C6.49665 2.33334 2.83331 5.99784 2.83331 10.5C2.83331 15.0022 6.49665 18.6667 11 18.6667C13.0568 18.6667 14.9316 17.8967 16.3701 16.6378L17.93 19.9045C17.93 19.9045 18.2508 20.1658 18.6918 20.5998C19.1433 21.0233 19.7371 21.5962 20.3065 22.1947L21.8908 23.8187L22.5955 24.5723L25.07 22.0978L24.3163 21.3932C23.8741 20.9592 23.2838 20.3828 22.6935 19.8065ZM11 16.3333C7.78348 16.3333 5.16665 13.7165 5.16665 10.5C5.16665 7.28351 7.78348 4.66668 11 4.66668C14.2165 4.66668 16.8333 7.28351 16.8333 10.5C16.8333 13.7165 14.2165 16.3333 11 16.3333Z" fill="#C2A253"/>
</svg>
