<svg width="42" height="41" viewBox="0 0 42 41" fill="none" xmlns="http://www.w3.org/2000/svg">
<path d="M33.2476 29.0024C32.4475 28.236 31.6688 27.4475 30.9124 26.638C30.2769 25.9923 29.8942 25.5225 29.8942 25.5225L25.1109 23.2384C27.0259 21.0665 28.0828 18.2706 28.0834 15.375C28.0834 8.78253 22.7192 3.41666 16.125 3.41666C9.53085 3.41666 4.16669 8.78253 4.16669 15.375C4.16669 21.9674 9.53085 27.3333 16.125 27.3333C19.1368 27.3333 21.8821 26.2058 23.9885 24.3625L26.2725 29.1459C26.2725 29.1459 26.7423 29.5285 27.3881 30.164C28.0492 30.7842 28.9187 31.6229 29.7524 32.4993L32.0723 34.8773L33.1041 35.9809L36.7275 32.3575L35.6239 31.3257C34.9765 30.6902 34.1121 29.8463 33.2476 29.0024ZM16.125 23.9167C11.4151 23.9167 7.58335 20.0849 7.58335 15.375C7.58335 10.6651 11.4151 6.83332 16.125 6.83332C20.8349 6.83332 24.6667 10.6651 24.6667 15.375C24.6667 20.0849 20.8349 23.9167 16.125 23.9167Z" fill="#C2A253"/>
</svg>
